<?xml version="1.0" encoding="UTF-8"?>
<svg version="1.1" xmlns="http://www.w3.org/2000/svg" width="1326" height="369">
<path d="M0 0 C437.58 0 875.16 0 1326 0 C1326 121.77 1326 243.54 1326 369 C888.42 369 450.84 369 0 369 C0 247.23 0 125.46 0 0 Z " fill="#20201F" transform="translate(0,0)"/>
<path d="M0 0 C5.18423424 0.60770329 9.81399376 2.22817862 14.70703125 3.96484375 C23.59897118 6.76005618 31.33801389 7.16794434 40.62304688 6.65820312 C47.40691447 6.4674527 47.40691447 6.4674527 50.44921875 9.19921875 C50.96097656 10.12347656 51.47273437 11.04773438 52 12 C52.73827026 13.16631958 52.73827026 13.16631958 53.49145508 14.35620117 C57.74180276 21.80514356 58.21345066 29.88793983 58.125 38.2734375 C58.11903809 39.09225403 58.11307617 39.91107056 58.10693359 40.75469971 C58.07319491 44.16189348 58.02876242 47.56584771 57.90771484 50.97119141 C57.72929975 56.48327868 57.69512272 61.61921389 59 67 C62.27821278 70.34438417 65.62498283 71.54542052 70 73 C77.13293848 77.07322053 83.60922804 81.51862369 86.125 89.625 C86 93 86 93 84.625 95.6875 C76.50102259 102.84433724 67.2314484 102.66554267 56.88671875 102.60546875 C53.6442329 102.72642791 51.05404489 102.89099567 48 104 C45.50338367 107.07985292 44.16808572 110.23167635 43 114 C43.91652344 114.43505859 43.91652344 114.43505859 44.8515625 114.87890625 C47 116 47 116 49.375 117.9375 C51.90869585 120.19408889 51.90869585 120.19408889 55.25 120.9375 C56.1575 121.618125 57.065 122.29875 58 123 C58.390625 125.796875 58.390625 125.796875 58.5 129.1875 C58.70634616 134.80886969 59.33256067 138.14972975 63.11328125 142.37109375 C69.96807722 148.28920953 79.21723005 150.59798352 87.69189453 153.32641602 C95.85968791 156.03387942 103.22541777 159.55726887 108 167 C110.39655157 174.91248558 110.63107525 183.36721513 111.125 191.5625 C111.16636078 192.24118134 111.20772156 192.91986267 111.25033569 193.61911011 C113.75254483 235.31630313 113.66763527 282.34097437 85.625 316.25 C76.34408669 326.34429673 76.34408669 326.34429673 69.8125 327.625 C66.52148871 326.89366416 63.98887892 325.55421704 61 324 C51.06740045 320.74621739 41.63149582 321.07819332 32 325 C14.54130587 331.93798268 14.54130587 331.93798268 7 332 C5.906875 332.03738281 4.81375 332.07476562 3.6875 332.11328125 C-3.10396779 332.24769572 -9.59436272 331.91585645 -16.3125 331 C-27.40267423 329.50691359 -36.2157135 328.83663254 -45.9375 335.28515625 C-50.76081478 339.15026787 -54.37135429 344.03680678 -58 349 C-60.28417969 348.82641602 -60.28417969 348.82641602 -63 348 C-64.80175781 345.75366211 -64.80175781 345.75366211 -66.453125 342.77734375 C-67.06776611 341.68945557 -67.68240723 340.60156738 -68.31567383 339.48071289 C-68.96083553 338.29985291 -69.60560284 337.11877737 -70.25 335.9375 C-70.92125519 334.73539952 -71.59403363 333.53414839 -72.26831055 332.33374023 C-73.59637073 329.96391298 -74.91540737 327.58945072 -76.22607422 325.20996094 C-77.67448443 322.58902818 -79.14011078 319.98089485 -80.62890625 317.3828125 C-82.7908887 313.609196 -84.90778973 309.81270805 -87 306 C-87.37366699 305.32114746 -87.74733398 304.64229492 -88.13232422 303.94287109 C-93.78892302 293.60413945 -98.95364655 283.05089087 -103.9375 272.375 C-104.7713623 270.59657715 -104.7713623 270.59657715 -105.62207031 268.78222656 C-114.94149016 248.61776755 -114.94149016 248.61776755 -112.2734375 239.5234375 C-110.76877765 235.47431222 -109.23350769 232.29936884 -106.5625 228.875 C-103.87077873 225.39545786 -102.78024363 221.53935252 -101.5625 217.375 C-98.15747095 205.75950066 -93.67559186 192.42391839 -84 184.5625 C-76.07663062 177.79462199 -72.4855163 167.068018 -69.625 157.3125 C-67.24965963 150.24866058 -63.27940503 146.42346174 -56.75 142.9375 C-51.60039101 140.51340013 -46.35100149 138.77028062 -40.9375 137.0625 C-29.41072719 133.38135003 -18.53987775 127.70474726 -12 117 C-12.18336825 113.06074409 -13.88004891 109.6534184 -15.4375 106.0625 C-17.97035607 100.2029076 -17.97035607 100.2029076 -18.453125 96.8984375 C-21.08864734 91.9601608 -26.20671822 91.23156562 -31.3125 89.5625 C-33.51138635 88.78898 -35.70803475 88.00906733 -37.90234375 87.22265625 C-39.48764893 86.65635498 -39.48764893 86.65635498 -41.10498047 86.07861328 C-51.14503101 82.33793667 -62.59143064 76.41693274 -68.2421875 66.91015625 C-69.38601598 64.02700096 -69.43113226 62.07951613 -69 59 C-64.54892269 52.32338404 -59.25586159 50.09987379 -51.58544922 48.44140625 C-47.05865063 47.66855905 -42.52052149 47.52808631 -37.9375 47.375 C-36.49600586 47.31699219 -36.49600586 47.31699219 -35.02539062 47.2578125 C-32.68377186 47.16461374 -30.34213963 47.07880815 -28 47 C-27.29037109 45.5459375 -27.29037109 45.5459375 -26.56640625 44.0625 C-9.65120362 9.65120362 -9.65120362 9.65120362 0 0 Z " fill="#F5B50A" transform="translate(150,13)"/>
<path d="M0 0 C3.08126158 2.68060218 4.83749855 5.89376013 6.8125 9.4375 C7.45832031 10.57058594 8.10414063 11.70367187 8.76953125 12.87109375 C10 16 10 16 9.35546875 18.171875 C8.90816406 18.77515625 8.46085937 19.3784375 8 20 C7.5978125 20.62519531 7.195625 21.25039062 6.78125 21.89453125 C6.3584375 22.52746094 5.935625 23.16039062 5.5 23.8125 C0.15826382 32.41600429 -0.15241593 41.60336221 1.6171875 51.42578125 C5.13204482 65.15860874 12.32537148 76.92238008 21 88 C21.62519531 88.81726563 22.25039062 89.63453125 22.89453125 90.4765625 C33.74292103 104.39608502 46.48313469 116.60968567 59 129 C58.06414062 129.45826172 58.06414062 129.45826172 57.109375 129.92578125 C54.7737232 131.11523356 53.49416361 131.83346276 52 134 C51.49451405 138.6649851 51.49451405 138.6649851 53.125 142.9375 C55.93512264 144.52990283 57.82764724 144.45319325 61 144 C63.96985325 141.69011414 65.39954869 139.34129308 67 136 C67.51949219 136.5053125 68.03898438 137.010625 68.57421875 137.53125 C69.62029297 138.50578125 69.62029297 138.50578125 70.6875 139.5 C71.37199219 140.1496875 72.05648437 140.799375 72.76171875 141.46875 C75.43841319 143.29992665 76.83279229 143.1284313 80 143 C84.146701 135.52441343 86.9326954 127.78015706 89.48486328 119.66015625 C90.12268089 117.63237305 90.7731645 115.60900039 91.42578125 113.5859375 C93.92047654 105.79343169 96.13671707 97.96981581 98 90 C98.18320801 89.23220215 98.36641602 88.4644043 98.55517578 87.67333984 C102.8302341 69.55680302 105.44546939 51.5446358 107 33 C105.35 32.67 103.7 32.34 102 32 C99.5023756 36.98462061 99.27067315 42.22887627 98.6875 47.6875 C97.61848934 56.92961558 96.19631043 66.0513673 94.4375 75.1875 C94.22762451 76.2911792 94.01774902 77.3948584 93.80151367 78.53198242 C92.87043683 83.25726178 91.85532949 87.54523996 90 92 C89.55436864 93.70100752 89.13991734 95.41036349 88.75 97.125 C86.63080497 105.88726754 83.7709609 114.42705949 81 123 C80.01 123 79.02 123 78 123 C75.55614324 120.18293538 73.71531431 116.91378869 71.75 113.75 C71.1828125 112.87730469 70.615625 112.00460937 70.03125 111.10546875 C69.50015625 110.26113281 68.9690625 109.41679687 68.421875 108.546875 C67.93299805 107.77182617 67.44412109 106.99677734 66.94042969 106.19824219 C65.82694829 103.59549386 65.96501 102.59142534 67 100 C67.97053729 98.54841379 68.99937471 97.13521109 70.0625 95.75 C81.82070778 79.37076817 88.06956738 60.99093192 88.625 40.9375 C88.68300781 39.20983398 88.68300781 39.20983398 88.7421875 37.44726562 C88.83565152 34.63166204 88.92141252 31.8160514 89 29 C87.84951172 28.56107422 87.84951172 28.56107422 86.67578125 28.11328125 C83.53155677 26.80510026 81.41073966 25.41073966 79 23 C78.86328125 20.36328125 78.86328125 20.36328125 79 18 C79.92039063 18.37511719 80.84078125 18.75023437 81.7890625 19.13671875 C89.42698147 22.23031484 97.08164653 25.15165976 104.87890625 27.82421875 C110.02612655 29.76328422 114.51510247 31.60983024 118 36 C129.86135524 72.69424181 123.3972535 129.76365364 106.27172852 163.48901367 C102.20306313 170.93705322 95.63489183 180.96842269 88 185 C85.30859375 184.671875 85.30859375 184.671875 82.4375 183.75 C81.48746094 183.45609375 80.53742188 183.1621875 79.55859375 182.859375 C78.71425781 182.57578125 77.86992187 182.2921875 77 182 C72.76991866 180.58997289 68.74406267 180.77559747 64.3125 180.75 C63.43916016 180.729375 62.56582031 180.70875 61.66601562 180.6875 C55.78494698 180.65236292 51.33853164 181.58309202 46 184 C43.85471734 184.87634924 41.70891501 185.75142785 39.5625 186.625 C38.53253906 187.05039062 37.50257813 187.47578125 36.44140625 187.9140625 C28.81126542 190.32175733 20.87639005 190.18204372 12.9375 190.1875 C11.99583984 190.19974609 11.05417969 190.21199219 10.08398438 190.22460938 C4.33275278 190.23661612 -0.46755046 189.53415892 -6 188 C-15.36193551 186.87709002 -23.10765483 189.27157673 -31.25 193.8125 C-34.77925253 196.61985997 -37.89800999 199.73281525 -41 203 C-44.41313204 201.60347147 -45.79082302 200.2325914 -47.5859375 197.03515625 C-48.03839844 196.24125488 -48.49085937 195.44735352 -48.95703125 194.62939453 C-49.42496094 193.78231934 -49.89289063 192.93524414 -50.375 192.0625 C-50.86613281 191.19222168 -51.35726562 190.32194336 -51.86328125 189.42529297 C-53.25296571 186.95602274 -54.62836553 184.47932835 -56 182 C-56.82371094 180.53240234 -56.82371094 180.53240234 -57.6640625 179.03515625 C-59.14007275 176.37229566 -60.57218607 173.68904958 -62 171 C-62.38091797 170.29246582 -62.76183594 169.58493164 -63.15429688 168.85595703 C-69.91044944 156.29611702 -76.04589802 143.56212757 -81.83032227 130.52856445 C-83.43002735 127.07038336 -85.19530709 123.70458331 -86.98950195 120.34375 C-88.92873939 115.84588109 -89.12254467 111.73892437 -88 107 C-86.22587434 103.6607202 -84.20627578 100.59234679 -82.09375 97.45703125 C-79.84571608 93.96153923 -78.53257758 90.39317302 -77.3125 86.4375 C-70.04357167 62.91040199 -70.04357167 62.91040199 -61 55.5625 C-53.35267563 49.03041044 -49.13583641 38.27847814 -46.5 28.75 C-44.87622279 23.17042513 -42.8169393 20.223653 -37.9375 16.9375 C-32.35089811 13.97147896 -26.26395607 12.0693075 -20.26953125 10.10546875 C-12.93820386 7.61937649 -6.56661127 4.07977943 0 0 Z " fill="#22211F" transform="translate(133,147)"/>
<path d="M0 0 C68.70491803 0 68.70491803 0 81.453125 11.14453125 C88.06139857 18.12125173 89.45487962 24.42201688 89.2421875 33.875 C88.62865757 41.79151522 86.82629202 48.43275232 81.25 54.2734375 C76.98967544 57.54264489 72.0440651 59.27723228 67 61 C68.16015625 61.32871094 68.16015625 61.32871094 69.34375 61.6640625 C78.24405902 64.37381005 85.85342142 67.91251938 91 76 C96.58332759 88.26731115 98.05598279 100.63475055 93.9140625 113.69921875 C90.43520063 122.45584116 84.34253774 127.31946864 76 131 C51.94797306 139.01734231 25.35306249 134 0 134 C0 89.78 0 45.56 0 0 Z " fill="#F9B80A" transform="translate(869,141)"/>
<path d="M0 0 C9.93397794 9.17443838 11.5786822 19.71609317 12.1741333 32.83709717 C12.22923553 36.90087065 12.22604679 40.95965003 12.1953125 45.0234375 C12.19156982 46.50558275 12.18872881 47.98773052 12.18673706 49.46987915 C12.17919917 53.31997843 12.15963884 57.16992027 12.1373291 61.0199585 C12.11665503 64.96901318 12.10768985 68.91809398 12.09765625 72.8671875 C12.07638072 80.57820417 12.04128252 88.28905973 12 96 C8.04 96 4.08 96 0 96 C-1.43023178 91.32790951 -2.40380045 86.86896303 -3 82 C-3.65742187 82.76183594 -3.65742187 82.76183594 -4.328125 83.5390625 C-10.80297361 90.56664209 -19.43664895 96.39782237 -29.22314453 97.17700195 C-50.44982965 97.71680924 -50.44982965 97.71680924 -58 93 C-59.3921875 92.13375 -59.3921875 92.13375 -60.8125 91.25 C-68.41734494 83.42787377 -70.40078694 74.98556058 -70.36791992 64.40917969 C-70.19867524 56.99449789 -68.50370864 51.89903106 -63.625 46.25 C-62.75875 45.5075 -61.8925 44.765 -61 44 C-60.05125 43.13375 -59.1025 42.2675 -58.125 41.375 C-50.04986778 35.23789952 -41.73734816 34.80461693 -32 34.8125 C-30.61300903 34.81262085 -30.61300903 34.81262085 -29.19799805 34.81274414 C-11.07548634 34.96225683 -11.07548634 34.96225683 -5 38 C-5.05217727 34.62377072 -5.14732018 31.25004113 -5.25 27.875 C-5.26417969 26.92367187 -5.27835938 25.97234375 -5.29296875 24.9921875 C-5.53905455 17.90491641 -6.69940288 14.19057722 -11.875 9.1875 C-19.47411621 4.94093506 -33.22142626 5.92934498 -41.52734375 8.08984375 C-47.53114224 10.29977274 -53.26677391 13.17493207 -59 16 C-59.83819158 14.37750059 -60.6704116 12.75191503 -61.5 11.125 C-61.9640625 10.22007812 -62.428125 9.31515625 -62.90625 8.3828125 C-64 6 -64 6 -64 4 C-45.50500507 -5.11022018 -18.88957796 -13.53819647 0 0 Z " fill="#F8B70A" transform="translate(743,180)"/>
<path d="M0 0 C5.38514798 4.48951284 8.82163321 11.02980985 9.84812927 17.9596405 C10.44474096 26.68248019 10.56807728 35.37450997 10.53515625 44.11328125 C10.53328547 45.59685722 10.53186469 47.08043381 10.53086853 48.56401062 C10.52709527 52.42228984 10.51731096 56.28052993 10.50616455 60.13879395 C10.4958372 64.09447704 10.49134693 68.05016661 10.48632812 72.00585938 C10.47568267 79.73309261 10.4581296 87.46028578 10.4375 95.1875 C6.4775 95.1875 2.5175 95.1875 -1.5625 95.1875 C-1.69527344 94.26066406 -1.82804687 93.33382812 -1.96484375 92.37890625 C-2.22974609 90.58259766 -2.22974609 90.58259766 -2.5 88.75 C-2.76103516 86.95755859 -2.76103516 86.95755859 -3.02734375 85.12890625 C-3.25235213 82.30794324 -3.25235213 82.30794324 -4.5625 81.1875 C-4.89121094 81.63480469 -5.21992187 82.08210938 -5.55859375 82.54296875 C-9.54760101 87.61300779 -13.75017266 90.47198067 -19.5625 93.1875 C-20.57699219 93.71988281 -21.59148437 94.25226563 -22.63671875 94.80078125 C-27.58136778 96.88756261 -32.65012729 96.66257177 -37.9375 96.625 C-38.9275 96.64498047 -39.9175 96.66496094 -40.9375 96.68554688 C-50.60352485 96.67917087 -57.74230242 93.74416668 -64.8359375 87.1875 C-71.77114361 79.15395808 -72.02003001 69.27789153 -71.5625 59.1875 C-70.24397641 51.14450609 -65.00369622 44.59138293 -58.68017578 39.59960938 C-51.08291732 34.53360258 -42.78594017 33.55249546 -33.875 33.75 C-32.83859375 33.7603125 -31.8021875 33.770625 -30.734375 33.78125 C-22.09705641 33.96320095 -13.94629911 35.11620846 -5.5625 37.1875 C-5.65032642 34.35282658 -5.75730902 31.52096584 -5.875 28.6875 C-5.89755859 27.89601562 -5.92011719 27.10453125 -5.94335938 26.2890625 C-6.19626226 20.67921658 -7.20316601 16.30500778 -9.5625 11.1875 C-16.94472567 5.06182338 -25.40796312 5.55747637 -34.5625 6.1875 C-42.18209813 7.2603259 -48.79636266 9.40539814 -55.5390625 13.1015625 C-57.5625 14.1875 -57.5625 14.1875 -60.5625 15.1875 C-62.2125 11.5575 -63.8625 7.9275 -65.5625 4.1875 C-45.98592418 -6.8243239 -20.30256064 -13.81907869 0 0 Z " fill="#F9B80A" transform="translate(1161.5625,180.8125)"/>
<path d="M0 0 C1.71038452 0.00640503 1.71038452 0.00640503 3.45532227 0.01293945 C17.34954387 0.29049043 29.07001146 4.222765 41.4375 10.5 C41.32307539 12.10495567 41.19555306 13.70898119 41.0625 15.3125 C40.99289062 16.20582031 40.92328125 17.09914062 40.8515625 18.01953125 C40.4375 20.5 40.4375 20.5 38.4375 23.5 C37.73367188 23.18546875 37.02984375 22.8709375 36.3046875 22.546875 C20.53420591 15.7116271 4.19168702 11.12750443 -13.01953125 15.34765625 C-17.79624169 17.4602943 -21.32426709 20.48696355 -23.78125 25.12890625 C-25.60233903 30.65591145 -25.6838276 36.37777132 -23.7109375 41.87109375 C-18.40493821 51.41828295 -8.43497313 53.75052781 1.34179688 56.83203125 C20.09202447 62.80833865 38.49541807 69.09371319 48.4375 87.5 C52.46816693 95.3521297 51.5981232 106.82263869 49.52734375 115.16796875 C45.08470723 126.4388376 38.36464702 132.40822676 27.4375 137.5 C5.74971296 145.77592322 -15.74005814 140.9548417 -36.5625 132.5 C-36.5897415 131.08344207 -36.60900467 129.66672955 -36.625 128.25 C-36.63660156 127.46109375 -36.64820313 126.6721875 -36.66015625 125.859375 C-36.56635306 123.59308998 -36.19491063 121.6711105 -35.5625 119.5 C-32.56084195 120.16855111 -29.88467449 121.16146497 -27.0625 122.375 C-10.96264433 128.78686112 6.16196901 130.26299312 22.4375 123.5 C26.79786019 121.17060606 29.72275176 117.54359735 31.73828125 113.0703125 C33.48034398 106.66652883 33.75184768 99.27438781 31.5546875 92.96484375 C30.35038101 90.8951912 29.06907518 89.24901504 27.4375 87.5 C26.98761719 86.97277344 26.53773438 86.44554687 26.07421875 85.90234375 C18.9171495 78.67129963 7.36162233 76.1455586 -2.04760742 72.94262695 C-30.58824791 63.19658083 -30.58824791 63.19658083 -37.8125 52.0625 C-38.29203125 51.34191406 -38.7715625 50.62132812 -39.265625 49.87890625 C-43.64696311 41.84205411 -43.93095909 32.37815383 -41.875 23.546875 C-38.63988988 14.75815917 -33.41582187 9.64248739 -25.515625 4.859375 C-17.0841902 0.97823835 -9.23563238 -0.0525955 0 0 Z " fill="#F9B80A" transform="translate(431.5625,138.5)"/>
<path d="M0 0 C0.33 17.16 0.66 34.32 1 52 C3.31 49.69 5.62 47.38 8 45 C18.70614357 36.82521165 27.63531941 35.00377954 41 36 C44.2106189 36.64684528 47.0338487 37.6237058 50 39 C50.62390625 39.2784375 51.2478125 39.556875 51.890625 39.84375 C59.39190483 43.62700418 63.21553164 49.63756732 66.23828125 57.27734375 C68.67960612 66.00351519 68.12938547 75.11710281 68.09765625 84.09375 C68.09578842 85.65173293 68.09436624 87.20971646 68.09336853 88.7677002 C68.08957208 92.84470271 68.0797667 96.92166893 68.06866455 100.99865723 C68.05838831 105.16837066 68.05385766 109.33809002 68.04882812 113.5078125 C68.03814153 121.67189342 68.02056837 129.83593799 68 138 C62.72 138 57.44 138 52 138 C51.9906543 135.91204102 51.98130859 133.82408203 51.97167969 131.67285156 C51.93773319 124.73172383 51.88208773 117.79088789 51.81609726 110.84999466 C51.77678627 106.64656386 51.74451835 102.44333742 51.72900391 98.23974609 C51.71372825 94.17404231 51.67909334 90.10890097 51.63169098 86.0434494 C51.61698854 84.50157341 51.60896547 82.95961706 51.60811615 81.4176712 C51.71525274 66.06620636 51.71525274 66.06620636 45.01141357 52.75152588 C40.20259663 48.56403931 35.23488936 48.63371369 29.12890625 48.74609375 C18.5858417 49.6016483 9.88090166 54.24494143 2 61 C1.34 61 0.68 61 0 61 C0 86.41 0 111.82 0 138 C-5.28 138 -10.56 138 -16 138 C-16 93.45 -16 48.9 -16 3 C-3 0 -3 0 0 0 Z " fill="#FBB90A" transform="translate(1001,138)"/>
<path d="M0 0 C7.18656746 5.1595869 10.83141813 13.11577157 12.53123474 21.67495728 C13.03663239 25.25984066 13.1198768 28.67022227 13.11352539 32.29052734 C13.11367142 32.99366058 13.11381744 33.69679382 13.1139679 34.42123413 C13.11327584 36.72616755 13.1055168 39.03101834 13.09765625 41.3359375 C13.09578956 42.94161942 13.09436684 44.54730192 13.09336853 46.15298462 C13.08956315 50.36482332 13.07974988 54.57662716 13.06866455 58.78845215 C13.05840777 63.09203622 13.05386179 67.39562596 13.04882812 71.69921875 C13.03812573 80.13283023 13.02054507 88.56640675 13 97 C7.72 97 2.44 97 -3 97 C-3.01458252 94.93709717 -3.02916504 92.87419434 -3.04418945 90.7487793 C-3.0947649 83.8954841 -3.16139882 77.04241067 -3.23571491 70.18933392 C-3.28024191 66.03859628 -3.3195357 61.88795281 -3.34643555 57.73706055 C-3.37264648 53.72330559 -3.41317097 49.70991653 -3.46318626 45.69639015 C-3.47973576 44.17322185 -3.4913236 42.64999044 -3.49761391 41.12674522 C-3.5422242 31.30753461 -3.76221861 21.75605581 -8.6875 13 C-13.47309431 8.86110763 -19.17506765 7.34116017 -25.45703125 7.58984375 C-34.46210278 9.04227464 -42.32131787 13.47152258 -49.7578125 18.546875 C-52 20 -52 20 -55 21 C-55 46.08 -55 71.16 -55 97 C-60.28 97 -65.56 97 -71 97 C-71 64 -71 31 -71 -3 C-67.04 -3 -63.08 -3 -59 -3 C-57.46450769 0.07098462 -57.5573183 3.29580377 -57.28125 6.6875 C-57.12863953 9.02268455 -57.12863953 9.02268455 -56 11 C-55.21689453 10.34644531 -55.21689453 10.34644531 -54.41796875 9.6796875 C-37.96528703 -3.63228966 -19.94576355 -10.29808444 0 0 Z " fill="#FBB90A" transform="translate(1267,179)"/>
<path d="M0 0 C5.28 0 10.56 0 16 0 C16.0093457 2.12872559 16.01869141 4.25745117 16.02832031 6.45068359 C16.06221812 13.51555593 16.11783744 20.5801401 16.18390274 27.64478111 C16.22326726 31.92449767 16.25550937 36.20401187 16.27099609 40.48388672 C16.28623592 44.62090079 16.32080938 48.75735812 16.36830902 52.89412308 C16.38304782 54.46556358 16.39103667 56.0370836 16.39188385 57.60859299 C16.40296795 67.86782116 17.31850269 76.10960431 22.875 85 C27.43890605 89.29544099 32.91736657 89.50596549 38.93359375 89.375 C47.95738001 88.27145416 55.51075337 84.25687694 62.29296875 78.35546875 C64 77 64 77 66 77 C66 51.59 66 26.18 66 0 C71.28 0 76.56 0 82 0 C82 33 82 66 82 100 C78.04 100 74.08 100 70 100 C68.64908472 97.29816945 68.66141942 94.88191794 68.4375 91.875 C68.35371094 90.77929688 68.26992188 89.68359375 68.18359375 88.5546875 C68.12300781 87.71164062 68.06242188 86.86859375 68 86 C67.10539063 86.74765625 66.21078125 87.4953125 65.2890625 88.265625 C52.28508318 98.95915172 42.48712969 102.55959715 25.4375 101.30908203 C17.6137723 100.31701079 11.92829688 96.56250475 6.9375 90.625 C1.39205554 82.59692347 -0.13046369 74.36430418 -0.11352539 64.70947266 C-0.11367142 64.00633942 -0.11381744 63.30320618 -0.1139679 62.57876587 C-0.11327584 60.27383245 -0.1055168 57.96898166 -0.09765625 55.6640625 C-0.09578956 54.05838058 -0.09436684 52.45269808 -0.09336853 50.84701538 C-0.08956315 46.63517668 -0.07974988 42.42337284 -0.06866455 38.21154785 C-0.05840777 33.90796378 -0.05386179 29.60437404 -0.04882812 25.30078125 C-0.03812573 16.86716977 -0.02054507 8.43359325 0 0 Z " fill="#FBB90A" transform="translate(502,176)"/>
<path d="M0 0 C3.45080982 0.52812394 6.73189146 1.47044558 10.0625 2.5 C14.96482424 4.01073166 19.15513275 5.1136097 24.31640625 5.140625 C25.32767578 5.15996094 26.33894531 5.17929687 27.38085938 5.19921875 C29.50566694 5.23313219 31.63078278 5.25130677 33.75585938 5.25390625 C41.43052695 5.44001816 41.43052695 5.44001816 44.109375 8.07421875 C45.16993264 11.55824364 46.08975109 14.97273346 46.6875 18.5625 C46.81487549 19.31321777 46.94225098 20.06393555 47.07348633 20.83740234 C48.83178492 32.77402099 48.25063557 44.97206307 48 57 C26.53782972 62.61352983 4.79180261 59.65105425 -14.3046875 48.71484375 C-17.48462964 46.69166317 -20.260227 44.58321454 -23 42 C-22.41600318 38.46012884 -21.49328737 35.62833179 -19.84765625 32.4453125 C-19.40534668 31.58969727 -18.96303711 30.73408203 -18.50732422 29.85253906 C-18.03053223 28.95245117 -17.55374023 28.05236328 -17.0625 27.125 C-16.57539551 26.19913086 -16.08829102 25.27326172 -15.58642578 24.31933594 C-5.54341696 5.54341696 -5.54341696 5.54341696 0 0 Z " fill="#22221F" transform="translate(153,22)"/>
<path d="M0 0 C7.05375 -0.061875 7.05375 -0.061875 14.25 -0.125 C16.43544434 -0.15231201 16.43544434 -0.15231201 18.66503906 -0.18017578 C32.44232199 -0.23809493 47.53610165 0.44501606 58.30859375 9.890625 C62.93837674 15.66448831 63.52271234 21.28879176 63.5 28.4375 C63.52835938 29.24509766 63.55671875 30.05269531 63.5859375 30.88476562 C63.60603339 37.11951684 61.87608641 41.14150871 58 46 C47.18476414 56.53062439 31.32444445 55.26702065 17.375 55.125 C8.774375 55.063125 8.774375 55.063125 0 55 C0 36.85 0 18.7 0 0 Z " fill="#22211F" transform="translate(886,208)"/>
<path d="M0 0 C1.79832913 1.34175348 3.56586483 2.71610552 5.32836914 4.10449219 C10.81971891 8.40435179 17.33371599 10.45971497 23.86743164 12.72167969 C24.81489258 13.08261719 25.76235352 13.44355469 26.73852539 13.81542969 C33.97902548 15.91255331 41.44300825 15.88090163 48.92993164 15.84667969 C50.30084961 15.85139282 50.30084961 15.85139282 51.69946289 15.85620117 C55.94635189 15.84767477 60.11324512 15.75423338 64.33227539 15.24902344 C74.37907591 14.05252131 80.61708913 15.73743125 88.86743164 21.72167969 C92.01955583 24.25040327 95.00286396 26.87191598 97.86743164 29.72167969 C96.86743164 32.72167969 96.86743164 32.72167969 95.24243164 33.84667969 C62.75440873 45.81595129 8.65234933 32.05193861 -21.0144043 18.71533203 C-28.52077101 15.19401892 -35.96490575 11.36581733 -41.13256836 4.72167969 C-40.95678711 2.67089844 -40.95678711 2.67089844 -40.13256836 0.72167969 C-30.06955303 -5.9869972 -10.0431012 -6.65311769 0 0 Z " fill="#24221F" transform="translate(130.132568359375,72.2783203125)"/>
<path d="M0 0 C5.28 -0.04125 10.56 -0.0825 16 -0.125 C18.475 -0.15231201 18.475 -0.15231201 21 -0.18017578 C22.33333004 -0.18602649 23.66666371 -0.19112067 25 -0.1953125 C26.00740234 -0.2106604 26.00740234 -0.2106604 27.03515625 -0.22631836 C32.03605008 -0.22812504 36.2251535 0.6557402 41 2 C41.83789062 2.22300781 42.67578125 2.44601563 43.5390625 2.67578125 C49.50651467 4.49730691 53.9404572 6.72345463 57.375 12.1875 C59.03691343 19.66611043 58.43046874 27.10066174 55 34 C52.09389395 38.40903504 49.50434101 39.99036181 44.5625 41.75 C43.45003906 42.15734375 42.33757813 42.5646875 41.19140625 42.984375 C35.81289335 44.69601925 30.9201896 45.13956425 25.29296875 45.09765625 C24.3274408 45.09614563 24.3274408 45.09614563 23.34240723 45.09460449 C20.95741981 45.08940599 18.57245795 45.07544492 16.1875 45.0625 C10.845625 45.041875 5.50375 45.02125 0 45 C0 30.15 0 15.3 0 0 Z " fill="#24221F" transform="translate(886,153)"/>
<path d="M0 0 C5.28 0 10.56 0 16 0 C16.11636652 12.51845181 16.20495396 25.03677281 16.25906086 37.55565739 C16.28504272 43.37006435 16.3202306 49.18409853 16.37719727 54.99829102 C16.43192601 60.61989898 16.46150612 66.24115065 16.47438622 71.86300468 C16.48355322 73.99700966 16.50145222 76.13099737 16.52865028 78.26484871 C16.73336589 95.00720018 15.65977614 111.07493531 3.2734375 123.76953125 C-0.80703796 127.46352996 -5.02831712 130.79267329 -10.6875 131.1875 C-13.51768275 129.73416291 -13.70986284 128.84351569 -14.8125 125.9375 C-15.22806419 124.63111312 -15.63014388 123.32005558 -16 122 C-15.54109375 121.63648438 -15.0821875 121.27296875 -14.609375 120.8984375 C-6.54445922 114.29062835 -1.83407083 106.14844344 -0.76097107 95.66481018 C-0.35975169 88.9131033 -0.39329194 82.15180248 -0.390625 75.390625 C-0.37562345 73.21057926 -0.3588922 71.0305448 -0.34051514 68.8505249 C-0.29705135 63.149327 -0.27688915 57.44828238 -0.26177979 51.74694824 C-0.2421328 45.91454077 -0.20017151 40.082297 -0.16015625 34.25 C-0.08508147 22.83338409 -0.03465265 11.41680522 0 0 Z " fill="#FBB90A" transform="translate(784,176)"/>
<path d="M0 0 C0 4.29 0 8.58 0 13 C-2.10375 13.061875 -4.2075 13.12375 -6.375 13.1875 C-13.43496504 13.70651052 -18.04954067 15.34452937 -24 19 C-24.78801498 19.39969498 -25.57602997 19.79938995 -26.38792419 20.2111969 C-29.20611222 21.90031339 -30.99990387 23.37354311 -33 26 C-34.33146245 31.69047142 -34.19013338 37.27301178 -34.09765625 43.08984375 C-34.10331388 44.76137537 -34.11293076 46.43289786 -34.12632751 48.10438538 C-34.15087924 52.48623534 -34.12191412 56.86613412 -34.08154297 61.24780273 C-34.04983878 65.72581558 -34.06909932 70.20358317 -34.08398438 74.68164062 C-34.10567948 83.45511882 -34.06608797 92.22674345 -34 101 C-39.28 101 -44.56 101 -50 101 C-50 68 -50 35 -50 1 C-45.71 1 -41.42 1 -37 1 C-36.67 6.28 -36.34 11.56 -36 17 C-35.34 17 -34.68 17 -34 17 C-33.7525 16.43152344 -33.505 15.86304688 -33.25 15.27734375 C-26.78788338 3.50417504 -13.19236663 -4.39745554 0 0 Z " fill="#FCB90A" transform="translate(658,175)"/>
<path d="M0 0 C1.00371643 0.00068733 1.00371643 0.00068733 2.02770996 0.00138855 C3.43629744 0.00439686 4.84488201 0.01224038 6.25341797 0.0246582 C8.39953511 0.04291164 10.54521954 0.0451676 12.69140625 0.04492188 C24.09667854 0.0857405 24.09667854 0.0857405 28.90625 1.23046875 C30.6417454 23.69724554 30.6417454 23.69724554 27.93945312 29.19873047 C25.22248546 32.35028419 21.73618526 33.82788435 17.90625 35.23046875 C17.22046875 35.56949219 16.5346875 35.90851563 15.828125 36.2578125 C14.09375 37.10546875 14.09375 37.10546875 10.90625 38.23046875 C9.5759375 38.81828125 9.5759375 38.81828125 8.21875 39.41796875 C0.62611432 41.28031335 -7.18288307 41.25964125 -14.1796875 37.51953125 C-17.70297819 35.14670282 -19.76254846 33.36487354 -21.09375 29.23046875 C-21.49021582 26.37384375 -21.61173201 23.54997147 -21.65625 20.66796875 C-21.67115479 19.93553955 -21.68605957 19.20311035 -21.70141602 18.44848633 C-21.60286944 13.29082656 -20.42440027 10.34154814 -17.09375 6.23046875 C-11.7064268 1.25755503 -7.27133388 -0.02408039 0 0 Z " fill="#24231F" transform="translate(710.09375,225.76953125)"/>
<path d="M0 0 C0.69371201 0.00045822 1.38742401 0.00091644 2.10215759 0.00138855 C3.56201905 0.00439722 5.0218777 0.01224182 6.48168945 0.0246582 C8.71121641 0.04293901 10.94032768 0.04516745 13.16992188 0.04492188 C25.03026157 0.0859022 25.03026157 0.0859022 28.65234375 1.23046875 C28.91508212 5.41676674 29.07399156 9.60093922 29.21484375 13.79296875 C29.29025391 14.97439453 29.36566406 16.15582031 29.44335938 17.37304688 C29.66078997 25.99779369 29.66078997 25.99779369 26.75390625 29.55102539 C24.46020156 31.35863605 22.2129732 32.83173189 19.65234375 34.23046875 C18.9152417 34.65110596 18.17813965 35.07174316 17.41870117 35.50512695 C9.45839924 39.87317181 1.09790834 41.61022242 -7.84765625 39.6953125 C-12.23868936 38.37366931 -15.63513589 37.09059388 -18.34765625 33.23046875 C-21.68312968 26.44039783 -22.91132496 19.26615455 -20.62109375 11.890625 C-18.27537368 6.77008973 -15.24370532 3.66098528 -10.14672852 1.14331055 C-6.6519397 0.00357959 -3.67517469 -0.01171535 0 0 Z " fill="#22221F" transform="translate(1127.34765625,225.76953125)"/>
<path d="M0 0 C2.6875 0.4375 2.6875 0.4375 4.6953125 3.0703125 C15.65042313 21.58659753 17.4421771 46.77294182 12.6875 67.4375 C11.99551174 69.50554125 11.28668317 71.56801164 10.5625 73.625 C7.2898565 83.67494627 7.49989795 95.00007763 10.21875 105.17578125 C11.80969006 112.85206705 11.91301185 120.27140172 7.875 127.125 C6.29296875 129.44921875 6.29296875 129.44921875 4.6875 131.4375 C4.22988281 132.02144531 3.77226563 132.60539063 3.30078125 133.20703125 C1.07234314 134.90668744 -0.58624514 134.65854769 -3.3125 134.4375 C-3.67988281 133.50357422 -3.67988281 133.50357422 -4.0546875 132.55078125 C-6.16928228 127.32262794 -8.39176338 122.22372153 -10.90625 117.17578125 C-11.36273926 116.25176514 -11.81922852 115.32774902 -12.28955078 114.37573242 C-13.21219544 112.51900269 -14.14784768 110.66867288 -15.09716797 108.82543945 C-18.3272968 102.29670064 -18.3272968 102.29670064 -18.25390625 98.03515625 C-15.12503701 89.4015544 -5.85452566 79.46551711 1.6875 74.4375 C2.67618391 72.0714169 2.67618391 72.0714169 3.3125 69.3125 C3.67214844 67.94738281 3.67214844 67.94738281 4.0390625 66.5546875 C8.25699788 46.2781066 6.35952214 26.80045735 -2.59375 8.171875 C-3.55661664 5.84843593 -3.69925781 3.91274999 -3.3125 1.4375 C-2.3125 0.4375 -2.3125 0.4375 0 0 Z " fill="#F5B50A" transform="translate(98.3125,166.5625)"/>
<path d="M0 0 C0.66 0 1.32 0 2 0 C2.556875 0.9075 3.11375 1.815 3.6875 2.75 C6.87698272 7.23251625 10.1976078 9.40874384 15.703125 10.5703125 C19.5918252 11.07713362 23.46100377 11.3466286 27.375 11.5625 C28.11105469 11.60568359 28.84710938 11.64886719 29.60546875 11.69335938 C31.40348068 11.79843799 33.20171958 11.89962093 35 12 C35.68210727 33.59131872 33.33045891 52.00689863 25 72 C24.01 72.99 24.01 72.99 23 74 C22.68885254 73.42781738 22.37770508 72.85563477 22.05712891 72.26611328 C20.58057375 69.55196106 19.10294362 66.83839641 17.625 64.125 C17.08206299 63.12791016 16.53912598 62.13082031 15.97973633 61.10351562 C12.99302438 55.62664077 9.98399908 50.16386012 6.93237305 44.72290039 C4.93636092 41.15873282 2.96160388 37.58320778 1 34 C0.62907227 33.32372559 0.25814453 32.64745117 -0.12402344 31.95068359 C-1.16258182 30.03826184 -2.17887255 28.1158415 -3.1875 26.1875 C-3.75855469 25.10855469 -4.32960937 24.02960938 -4.91796875 22.91796875 C-6.42693503 18.84866257 -5.6868715 16.64562963 -4.0625 12.75390625 C-3.711875 12.03074219 -3.36125 11.30757812 -3 10.5625 C-1.37450427 7.0405926 -0.39921466 3.89234292 0 0 Z " fill="#24231F" transform="translate(159,148)"/>
<path d="M0 0 C3.02304836 2.78786401 4.93867575 5.38117217 6.77734375 9.05078125 C7.53760864 10.54629517 7.53760864 10.54629517 8.31323242 12.07202148 C9.11724487 13.67605835 9.11724487 13.67605835 9.9375 15.3125 C15.82432234 26.85080579 22.07784716 38.13029878 28.50830078 49.37207031 C30.33715711 52.59397039 32.12257493 55.83838916 33.90356445 59.08691406 C41.25889986 72.48912025 49.13231409 85.56424303 57.828125 98.14331055 C60.00341417 101.32539365 61.73429537 104.35340235 63 108 C57.42510097 104.02242307 52.44119322 99.74903563 47.60546875 94.90625 C46.9326033 94.23766968 46.25973785 93.56908936 45.56648254 92.88024902 C44.15140821 91.47088142 42.73889786 90.05893514 41.32885742 88.64453125 C39.21200633 86.52454265 37.08224044 84.41818404 34.95117188 82.3125 C17.49695461 64.94027763 -4.53798481 41.37098906 -5.4375 15.375 C-5.31381549 9.56182786 -4.29594184 4.29594184 0 0 Z " fill="#26241F" transform="translate(146,173)"/>
<path d="M0 0 C0.65355469 0.58007812 0.65355469 0.58007812 1.3203125 1.171875 C1.91585937 1.69265625 2.51140625 2.2134375 3.125 2.75 C3.75792969 3.30816406 4.39085937 3.86632812 5.04296875 4.44140625 C7.12494324 6.21385452 7.12494324 6.21385452 10.4375 7.6875 C13 10 13 10 13.4765625 12.09375 C14.11672328 31.41496617 7.4567254 54.55910656 -5.7734375 68.92578125 C-6.17820313 69.28027344 -6.58296875 69.63476562 -7 70 C-10.60470488 68.79843171 -11.52639883 67.24705914 -13.265625 63.94921875 C-15.35766871 58.39640061 -12.2314904 52.82636858 -10.10546875 47.70703125 C-3.85021951 32.38940678 -0.48695352 16.50772431 0 0 Z " fill="#25241F" transform="translate(202,171)"/>
<path d="M0 0 C0.90363281 0.1340625 1.80726563 0.268125 2.73828125 0.40625 C9.29724501 1.34395234 15.88131261 2.10128367 22.45898438 2.89453125 C24.01649414 3.08595703 24.01649414 3.08595703 25.60546875 3.28125 C26.54543701 3.39533203 27.48540527 3.50941406 28.45385742 3.62695312 C30.69670984 3.95556359 32.80538871 4.44929442 35 5 C37.58656673 5.22288501 40.15952778 5.41314385 42.75 5.5625 C43.44738281 5.60568359 44.14476562 5.64886719 44.86328125 5.69335938 C46.57531922 5.79889596 48.28763561 5.8998991 50 6 C47.05281557 16.47887797 38.91820288 26.02203335 29.5 31.4375 C25.83917227 32.26118624 23.63504676 32.04738635 20 31 C16.5308586 28.5264589 12.93125587 25.86251175 11 22 C12.010625 22.33 13.02125 22.66 14.0625 23 C20.74311995 24.86842288 25.84536044 24.31403668 32 21 C34.09100628 19.27071117 34.09100628 19.27071117 35 17 C34.77802187 14.3015411 34.77802187 14.3015411 34 12 C26.4400599 9.48001997 17.16842484 10.66469122 10 14 C8.65186818 16.00492272 8.65186818 16.00492272 8 18 C4.62136052 12.1245672 1.47767051 6.64951729 0 0 Z " fill="#2A271E" transform="translate(139,109)"/>
<path d="M0 0 C3.55247432 0.87379409 4.94828114 2.4927342 6.9375 5.4765625 C7.67694481 10.13506481 7.65723922 13.06346831 4.9375 16.9765625 C1.62069103 19.74056997 0.08401584 20.40543882 -4.125 20.0546875 C-6.88261524 19.23185069 -8.58327368 17.6660616 -10.2109375 15.32421875 C-11.86309921 11.73948257 -11.68617106 9.40569017 -11.0625 5.4765625 C-8.05531939 0.96579158 -5.26030565 -0.3785826 0 0 Z " fill="#F8B70A" transform="translate(794.0625,141.5234375)"/>
<path d="M0 0 C0.66 0 1.32 0 2 0 C2.13277344 0.95261719 2.26554687 1.90523438 2.40234375 2.88671875 C2.57894531 4.14097656 2.75554687 5.39523437 2.9375 6.6875 C3.11152344 7.92886719 3.28554687 9.17023438 3.46484375 10.44921875 C3.77221141 12.48861441 4.11545678 14.52480354 4.55859375 16.5390625 C5.11081185 19.61780058 5.13212944 22.56123993 5.125 25.6875 C5.12757812 26.82574219 5.13015625 27.96398437 5.1328125 29.13671875 C5 32 5 32 4 34 C3.34 34 2.68 34 2 34 C1.65219482 33.15236084 1.65219482 33.15236084 1.29736328 32.28759766 C0.2450564 29.73124395 -0.81486897 27.17811833 -1.875 24.625 C-2.23980469 23.73554688 -2.60460937 22.84609375 -2.98046875 21.9296875 C-3.51220703 20.65351563 -3.51220703 20.65351563 -4.0546875 19.3515625 C-4.37937012 18.56604004 -4.70405273 17.78051758 -5.03857422 16.97119141 C-5.94818617 14.83477136 -5.94818617 14.83477136 -8 13 C-7.68149439 9.36437503 -5.76769058 7.05577264 -3.5625 4.25 C-2.94503906 3.45078125 -2.32757813 2.6515625 -1.69140625 1.828125 C-1.13324219 1.22484375 -0.57507813 0.6215625 0 0 Z " fill="#2A271E" transform="translate(96,255)"/>
<path d="M0 0 C0.33 0 0.66 0 1 0 C1.19916016 1.53720703 1.19916016 1.53720703 1.40234375 3.10546875 C1.58064088 4.4661574 1.75903123 5.82683385 1.9375 7.1875 C2.02451172 7.86103516 2.11152344 8.53457031 2.20117188 9.22851562 C2.67825477 12.85081166 3.23012035 16.42803585 4 20 C-4.17367067 20.4485551 -9.97563746 20.40744316 -17 16 C-17 15.34 -17 14.68 -17 14 C-15.516662 13.06284078 -13.9855331 12.20092526 -12.4375 11.375 C-7.75760376 8.68937773 -4.62149956 5.74089592 -1.27734375 1.5390625 C-0.64505859 0.77722656 -0.64505859 0.77722656 0 0 Z " fill="#2D291E" transform="translate(187,133)"/>
<path d="M0 0 C2.4375 1.625 2.4375 1.625 4 4 C4.60605429 7.63632575 4.47161336 9.28314769 2.4375 12.375 C-0.93510779 14.62340519 -3.02512383 14.56783945 -7 14 C-9.4375 12.375 -9.4375 12.375 -11 10 C-11.60605429 6.36367425 -11.47161336 4.71685231 -9.4375 1.625 C-6.06489221 -0.62340519 -3.97487617 -0.56783945 0 0 Z " fill="#F3B40B" transform="translate(160,269)"/>
<path d="M0 0 C3.86002281 1.57260188 6.40092405 3.75115506 9 7 C9.85824 12.68583997 8.17087257 16.84417765 6 22 C2.83719351 20.41859676 1.84972175 17.29363745 0.3125 14.25 C-0.02072266 13.62867188 -0.35394531 13.00734375 -0.69726562 12.3671875 C-2.16066328 9.48298588 -3.02558721 7.43081726 -2.83203125 4.171875 C-2 2 -2 2 0 0 Z " fill="#2D291E" transform="translate(143,136)"/>
<path d="M0 0 C2.421875 0.64453125 2.421875 0.64453125 5 2 C5.890625 4.57421875 5.890625 4.57421875 6.25 7.6875 C6.38664063 8.75871094 6.52328125 9.82992187 6.6640625 10.93359375 C6.77492187 11.94550781 6.88578125 12.95742187 7 14 C7.2028319 15.41746479 7.40989042 16.83434641 7.625 18.25 C7.74875 19.1575 7.8725 20.065 8 21 C3.1917162 16.87861389 1.41649961 10.99288298 0 5 C-0.125 2.0625 -0.125 2.0625 0 0 Z " fill="#483C1B" transform="translate(196,139)"/>
<path d="M0 0 C1.98 0.99 1.98 0.99 4 2 C4 4.97 4 7.94 4 11 C2 10 2 10 0.875 7.75 C-0.00513321 4.98386705 -0.1645438 2.87951649 0 0 Z " fill="#332D1E" transform="translate(196,139)"/>
<path d="M0 0 C0.66 0 1.32 0 2 0 C2 2.31 2 4.62 2 7 C1.34 6.01 0.68 5.02 0 4 C-1.65 5.32 -3.3 6.64 -5 8 C-3.63055898 5.05043472 -2.12169591 2.47531189 0 0 Z " fill="#4F411B" transform="translate(96,255)"/>
</svg>
