<?xml version="1.0" standalone="no"?>
<!DOCTYPE svg PUBLIC "-//W3C//DTD SVG 20010904//EN"
 "http://www.w3.org/TR/2001/REC-SVG-20010904/DTD/svg10.dtd">
<svg version="1.0" xmlns="http://www.w3.org/2000/svg"
 width="300.000000pt" height="114.000000pt" viewBox="0 0 300.000000 114.000000"
 preserveAspectRatio="xMidYMid meet">
<metadata>
Created by potrace 1.10, written by Peter Selinger 2001-2011
</metadata>
<g transform="translate(0.000000,114.000000) scale(0.100000,-0.100000)"
fill="#000000" stroke="none">
<path d="M333 968 c-18 -6 -33 -15 -33 -20 0 -17 -81 -88 -100 -88 -24 0 -43
-35 -36 -65 3 -13 21 -30 41 -39 20 -10 33 -22 29 -28 -4 -6 1 -8 15 -3 17 5
20 3 14 -12 -9 -25 -41 -55 -52 -48 -28 17 -146 -195 -144 -260 1 -36 66 -179
96 -213 22 -23 51 -29 62 -12 4 6 11 7 17 4 6 -4 14 -1 18 6 7 11 28 14 188
24 65 4 96 20 107 57 4 11 9 17 13 15 4 -2 8 6 9 17 1 12 7 49 12 82 6 33 8
95 5 137 -7 80 -21 106 -61 113 -10 1 -17 8 -16 14 2 6 -7 11 -18 11 -18 0
-19 2 -9 15 9 10 9 15 1 15 -21 0 -11 19 12 22 31 4 35 52 8 89 -12 16 -21 37
-21 48 0 11 -4 23 -10 26 -5 3 -10 17 -10 29 0 31 -16 42 -69 51 -30 5 -39 10
-30 16 18 11 3 10 -38 -3z m79 -32 c32 1 48 -28 48 -89 0 -37 4 -45 30 -60 17
-10 30 -24 30 -32 0 -18 -31 -35 -64 -35 -28 0 -36 -24 -12 -33 8 -3 16 -16
18 -29 2 -16 15 -27 45 -38 24 -9 48 -21 54 -27 6 -6 13 -46 16 -89 6 -93 -15
-191 -51 -239 -21 -26 -30 -30 -77 -32 -190 -7 -213 -11 -231 -34 -18 -21 -19
-21 -33 -3 -22 30 -105 194 -105 208 0 20 49 128 67 148 8 9 22 31 31 49 10
20 29 37 48 43 95 33 99 79 8 120 -46 21 -55 29 -52 48 2 18 12 25 46 32 37 8
46 15 69 58 25 46 28 48 57 41 17 -4 43 -7 58 -7z"/>
<path d="M314 889 c-13 -21 -24 -43 -24 -48 0 -14 76 -41 115 -41 34 0 35 1
35 43 0 53 -5 60 -58 73 l-43 12 -25 -39z m86 -11 c25 -27 25 -35 1 -43 -19
-6 -71 9 -71 21 0 9 33 43 42 43 4 1 16 -9 28 -21z"/>
<path d="M223 823 c-34 -7 -28 -19 23 -43 58 -27 204 -48 236 -33 l23 10 -25
13 c-14 7 -47 12 -75 11 -38 -1 -63 5 -98 24 -27 14 -51 24 -55 24 -4 -1 -17
-4 -29 -6z"/>
<path d="M315 722 c3 -8 5 -16 5 -18 0 -3 9 0 21 6 23 13 54 6 44 -10 -3 -5
-17 -10 -31 -10 -14 0 -22 -4 -19 -10 10 -16 40 -12 58 8 27 30 20 40 -33 44
-39 2 -49 0 -45 -10z"/>
<path d="M391 667 c-12 -15 -5 -27 15 -27 7 0 12 9 11 20 -2 23 -10 25 -26 7z"/>
<path d="M245 631 c-41 -18 -54 -36 -116 -160 l-32 -64 37 -76 c54 -109 59
-115 88 -100 13 7 52 15 88 16 135 6 181 11 195 23 31 26 50 102 50 202 0 124
-17 147 -33 45 -6 -41 -19 -96 -29 -123 -17 -45 -21 -49 -56 -51 -35 -3 -49 8
-27 22 6 4 -13 32 -44 66 -63 68 -86 124 -68 164 11 24 7 56 -7 54 -3 0 -24
-8 -46 -18z m-5 -57 c8 -24 10 -55 5 -88 -4 -28 -7 -74 -6 -102 1 -34 -3 -55
-13 -63 -12 -10 -18 -5 -34 31 l-19 43 30 42 c25 36 29 48 24 85 -3 24 -9 53
-13 66 -11 38 14 25 26 -14z m-30 -71 c0 -19 -19 -55 -20 -38 0 6 -6 1 -12
-10 -11 -19 -11 -19 -18 0 -10 27 -2 45 16 38 8 -3 14 1 14 11 0 9 5 16 10 16
6 0 10 -8 10 -17z m75 -3 c-3 -5 5 -25 19 -43 28 -37 32 -53 14 -59 -7 -3 -9
-14 -4 -31 3 -15 11 -25 15 -22 5 3 7 14 4 25 -4 14 0 20 12 20 13 0 16 -6 11
-26 -6 -23 -4 -25 15 -19 13 4 19 3 16 -2 -4 -6 4 -16 18 -23 18 -10 31 -10
56 -1 40 14 39 14 39 -4 0 -8 -3 -14 -7 -14 -20 3 -34 -2 -28 -11 3 -6 -4 -9
-17 -8 -13 0 -43 -4 -67 -11 -24 -7 -60 -9 -81 -6 -22 4 -47 2 -59 -5 -14 -7
-21 -7 -21 0 0 5 -6 10 -14 10 -7 0 -16 10 -19 21 -4 16 -3 19 5 11 8 -8 17
-8 32 0 31 16 35 26 35 93 0 57 13 115 26 115 4 0 3 -4 0 -10z"/>
<path d="M345 631 c-6 -19 42 -131 56 -131 10 0 33 110 25 118 -4 3 -16 7 -28
9 -12 2 -27 8 -34 14 -9 7 -14 5 -19 -10z"/>
<path d="M478 599 c19 -21 14 -71 -12 -124 -20 -39 -23 -52 -14 -69 11 -20 12
-20 24 10 18 42 43 184 34 184 -5 0 -17 3 -27 6 -15 6 -16 4 -5 -7z"/>
<path d="M317 593 c-23 -22 10 -93 79 -171 49 -56 71 -64 35 -13 -12 16 -41
66 -64 110 -24 45 -47 78 -50 74z"/>
<path d="M440 569 c0 -16 -6 -45 -14 -63 -19 -45 -5 -68 19 -32 25 38 32 111
11 119 -13 5 -16 0 -16 -24z"/>
<path d="M915 694 c-56 -14 -85 -50 -85 -108 0 -31 43 -72 105 -101 49 -24 53
-28 42 -46 -12 -19 -57 -27 -57 -10 0 14 -52 -3 -63 -21 -7 -11 -5 -22 9 -41
17 -24 26 -26 83 -27 54 0 70 4 98 26 l33 25 33 -24 c22 -17 45 -25 74 -25 23
1 40 5 37 9 -3 5 9 6 25 3 17 -4 37 -2 44 5 10 8 22 7 46 -2 29 -11 34 -10 47
7 8 12 14 43 14 77 0 47 4 63 24 83 13 15 28 26 35 26 6 0 11 6 11 13 1 6 7 1
15 -13 12 -22 11 -27 -6 -46 -32 -34 -19 -144 18 -144 7 0 13 -4 13 -10 0 -10
135 -4 152 6 4 3 8 -5 8 -18 0 -52 51 -64 91 -22 22 24 24 35 27 145 3 80 0
125 -8 134 -8 10 -8 18 1 34 11 17 10 23 -5 40 -23 25 -34 26 -57 5 -13 -11
-16 -25 -12 -44 3 -15 1 -35 -4 -44 -8 -14 -13 -13 -43 9 -30 22 -44 25 -92
23 -32 -2 -58 -6 -58 -10 0 -5 -7 -8 -15 -8 -8 0 -15 -5 -15 -12 0 -6 -6 -3
-14 8 -12 15 -26 19 -70 18 -31 -1 -62 -6 -69 -12 -8 -7 -18 -7 -27 -2 -20 13
-57 12 -66 -1 -3 -6 -8 -40 -9 -76 -2 -42 -8 -69 -16 -74 -32 -20 -42 -4 -40
68 1 69 -11 93 -48 93 -29 0 -41 -15 -41 -50 0 -19 -30 -36 -39 -22 -8 12 -71
42 -87 42 -8 0 -11 6 -8 15 4 10 21 15 54 15 41 0 50 3 55 21 5 14 1 27 -11
39 -19 19 -93 32 -129 24z m103 -30 c13 -4 22 -14 22 -25 0 -16 -4 -17 -26 -9
-45 17 -102 12 -114 -10 -17 -31 2 -53 65 -74 65 -22 95 -55 95 -101 0 -60
-71 -96 -149 -75 -29 8 -41 16 -41 29 0 18 2 18 43 3 37 -13 46 -13 72 -1 25
12 30 20 30 49 0 33 -3 36 -63 61 -35 14 -71 33 -79 42 -24 24 -21 77 6 99 24
18 92 24 139 12z m748 -5 c10 -17 -23 -46 -37 -32 -7 7 -9 19 -6 27 7 18 33
21 43 5z m-316 -79 c0 -14 -7 -20 -22 -20 -13 0 -31 -7 -42 -15 -16 -12 -18
-24 -14 -95 4 -73 3 -80 -14 -80 -16 0 -18 10 -18 110 0 91 3 110 15 110 8 0
15 -7 15 -16 0 -13 5 -12 26 5 34 26 54 27 54 1z m184 -1 c25 -19 26 -25 26
-115 0 -77 -3 -94 -15 -94 -8 0 -15 7 -15 16 0 14 -2 14 -22 0 -53 -38 -128
-6 -128 53 0 47 43 74 103 67 47 -5 47 -5 41 22 -10 42 -14 45 -53 38 -20 -3
-45 -7 -55 -8 -33 -5 -28 18 6 29 52 17 83 15 112 -8z m-494 -72 c0 -89 8
-107 48 -107 54 0 62 14 62 105 0 78 2 85 20 85 19 0 20 -7 20 -110 0 -91 -3
-110 -15 -110 -8 0 -15 7 -15 15 0 19 -9 19 -34 0 -29 -22 -79 -19 -102 6 -15
17 -20 40 -22 110 -4 85 -3 89 17 89 20 0 21 -5 21 -83z m620 -37 c0 -117 -1
-122 -26 -147 -19 -18 -29 -22 -37 -14 -8 8 -6 16 6 29 14 15 17 40 17 135 0
110 1 117 20 117 19 0 20 -7 20 -120z"/>
<path d="M1532 471 c-8 -5 -12 -21 -10 -37 3 -25 8 -29 39 -32 39 -3 53 8 63
51 6 26 5 27 -36 27 -24 0 -49 -4 -56 -9z"/>
<path d="M1902 678 c-8 -8 -12 -58 -12 -159 0 -141 1 -149 22 -163 24 -17 168
-23 168 -8 0 4 13 12 28 18 22 9 33 8 47 -2 50 -36 89 7 83 92 -1 30 0 54 5
54 4 0 7 7 7 15 0 8 4 15 9 15 14 0 24 -32 22 -73 -5 -85 45 -145 86 -104 15
15 19 14 43 -3 23 -16 40 -19 94 -15 36 2 75 9 86 15 14 7 25 7 38 -1 42 -26
72 15 72 97 0 24 5 53 11 63 12 17 13 17 31 -1 15 -15 18 -31 16 -77 -2 -62
11 -91 41 -91 33 0 41 22 41 116 0 84 -2 96 -24 121 -23 26 -29 28 -101 27
-57 -2 -81 -6 -96 -19 -18 -17 -20 -17 -40 1 -16 14 -37 19 -83 20 -52 0 -64
-3 -84 -24 -17 -18 -20 -28 -13 -35 16 -16 13 -47 -4 -47 -10 0 -15 10 -15 28
0 41 -39 73 -94 79 -25 3 -43 9 -40 14 3 5 0 9 -7 9 -7 0 -10 3 -6 6 10 11
-27 44 -50 44 -12 0 -27 -9 -33 -20 -12 -23 -26 -22 -54 3 -15 13 -38 17 -101
17 -50 0 -86 -5 -93 -12z m302 -60 l-7 -62 28 22 c35 28 67 28 99 0 23 -21 25
-32 28 -116 3 -86 2 -92 -17 -92 -18 0 -20 6 -17 72 6 121 -18 149 -90 112
l-30 -16 4 -84 c4 -76 3 -84 -14 -84 -17 0 -18 12 -18 149 0 147 2 157 33 160
4 1 5 -27 1 -61z m-115 28 c21 -19 28 -61 13 -82 -4 -6 -16 -16 -27 -22 -15
-9 -16 -11 -4 -12 49 -1 69 -94 30 -134 -18 -17 -36 -22 -106 -25 l-85 -3 0
152 0 152 79 -3 c60 -3 84 -9 100 -23z m474 -77 c23 -29 26 -199 2 -199 -8 0
-15 7 -15 16 0 14 -2 14 -22 0 -53 -38 -128 -9 -128 49 0 50 40 79 101 72 l45
-6 -4 30 c-5 35 -36 46 -83 30 -32 -11 -49 -8 -49 9 0 15 61 30 100 25 20 -3
43 -14 53 -26z m228 12 c22 -17 24 -29 27 -115 4 -91 3 -96 -17 -96 -19 0 -20
7 -23 91 -4 109 -15 124 -72 96 l-36 -17 0 -85 c0 -78 -2 -85 -20 -85 -19 0
-20 7 -20 110 0 91 3 110 15 110 8 0 15 -6 15 -14 0 -11 8 -10 37 5 47 24 65
24 94 0z"/>
<path d="M1950 593 l0 -48 52 3 c108 7 105 92 -3 92 l-49 0 0 -47z"/>
<path d="M1950 460 l0 -60 43 0 c57 0 91 19 95 52 5 42 -28 68 -88 68 l-50 0
0 -60z m91 17 c16 -12 15 -15 -6 -34 -19 -16 -25 -17 -29 -7 -3 8 -12 14 -21
14 -8 0 -15 5 -15 10 0 6 7 10 15 10 8 0 15 5 15 10 0 14 21 12 41 -3z"/>
<path d="M2444 466 c-3 -8 -4 -25 -2 -38 2 -18 10 -24 36 -26 41 -4 58 9 64
48 4 30 4 30 -44 30 -33 0 -50 -5 -54 -14z"/>
</g>
</svg>
